<?xml version="1.0" standalone="no"?><!DOCTYPE svg PUBLIC "-//W3C//DTD SVG 1.1//EN" "http://www.w3.org/Graphics/SVG/1.1/DTD/svg11.dtd"><svg t="1637991481202" class="icon" viewBox="0 0 1025 1024" version="1.1" xmlns="http://www.w3.org/2000/svg" p-id="5301" xmlns:xlink="http://www.w3.org/1999/xlink" width="200.1953125" height="200"><defs><style type="text/css"></style></defs><path d="M671.969054 512.023546c-17.625391 0-31.999745 14.311932-31.999745 31.998722 0 17.685766 14.374354 31.998722 31.999745 31.998722 17.748188 0 31.998722-14.311932 31.998722-31.998722C703.966753 526.335478 689.716219 512.023546 671.969054 512.023546z" p-id="5302" fill="#ffffff"></path><path d="M991.952176 640.017409l-63.997443 0-0.187265 0c-0.063445-3.781109-0.500396-7.655339-1.938138-11.405748l-127.992839-335.982483c-4.687756-12.405516-16.6246-20.592973-29.873319-20.592973l-127.993863 0c-7.749483 0-15.248255 2.813063-21.060623 7.906048l-38.24804 33.467163-107.245347-140.773909c-8.000192-10.530823-21.87415-15.030292-34.37381-11.312628l-255.986702 74.683809c-11.749579 3.437279-20.561251 13.249742-22.624232 25.311429l-63.99642 373.293176c-0.313131 1.843994 0.187265 3.593844 0.187265 5.406116l-0.625239 0-63.997443 0c-17.624368 0-31.998722 14.311932-31.998722 31.998722s14.374354 31.998722 31.998722 31.998722l51.185675 0 76.809211 170.615505c0 11.812 14.374354 21.374778 31.998722 21.374778l5.874789 0c-3.562122 10.031451-5.874789 20.717816-5.874789 31.999745 0 53.060368 42.998218 95.995141 95.995141 95.995141 53.12279 0 95.995141-42.934773 95.995141-95.995141 0-11.280905-2.312667-21.968294-5.874789-31.999745l267.737304 0c-3.562122 10.031451-5.874789 20.717816-5.874789 31.999745 0 53.060368 42.998218 95.995141 95.996165 95.995141 53.121766 0 95.995141-42.934773 95.995141-95.995141 0-11.280905-2.312667-21.968294-5.873766-31.999745l5.873766 0c17.750234 0 31.998722-9.562778 31.998722-21.374778l76.809211-170.615505 51.185675 0c17.749211 0 31.998722-14.311932 31.998722-31.998722S1009.701387 640.017409 991.952176 640.017409zM220.178215 291.84635l215.677727-62.93423 114.681699 150.523951c5.374394 7.031123 13.437007 11.530591 22.248679 12.437239 8.624408 0.561794 17.560923-1.938138 24.247192-7.749483l54.935061-48.091203 93.934207 0 115.80631 303.984784-701.215092 0L220.178215 291.84635zM319.985164 928.002833c0 17.654044-14.374354 31.998722-31.998722 31.998722s-31.998722-14.344678-31.998722-31.998722c0-17.65609 14.374354-31.999745 31.998722-31.999745S319.985164 910.346742 319.985164 928.002833zM767.963172 928.002833c0 17.654044-14.374354 31.998722-31.998722 31.998722s-31.998722-14.344678-31.998722-31.998722c0-17.65609 14.374354-31.999745 31.998722-31.999745S767.963172 910.346742 767.963172 928.002833zM812.960927 832.007691l-601.969936 0-57.622258-127.993863 717.214453 0L812.960927 832.007691z" p-id="5303" fill="#ffffff"></path><path d="M406.605816 425.402895c-12.498637-12.498637-32.748803-12.498637-45.248464 0l-63.99642 63.997443c-12.49966 12.49966-12.49966 32.74778 0 45.247441 12.498637 12.49966 32.74778 12.49966 45.247441 0l41.373211-41.372188 41.373211 41.372188c6.249319 6.249319 14.436775 9.375513 22.623209 9.375513 8.187457 0 16.374913-3.126194 22.624232-9.375513 12.49966-12.498637 12.49966-32.74778 0-45.247441L406.605816 425.402895z" p-id="5304" fill="#ffffff"></path></svg>